<svg version="1" xmlns="http://www.w3.org/2000/svg" width="933.333" height="933.333" viewBox="0 0 700.000000 700.000000"><path d="M66.2 2.6c-17.3 8.6-16.9 32.6.7 41 2.8 1.4 6.6 1.8 17.4 1.9 7.5.1 13.9.4 14.1.6.2.2.6 10.4.8 22.6l.4 22.3-2.6.1c-1.4 0-8.1.1-15 .3-11.8.2-12.8.4-17 3.1-5.7 3.6-6.5 4.4-9 9.3-5.7 10.9-1.2 25 9.6 30.2 5.9 2.9 5.4 2.8 25.4 2.9l17.6.1 1.3 4.7c2.2 7.5 8.8 24.6 13.1 33.9 6.8 14.6 21.2 37.8 31 49.7 7.2 8.9 23.6 25.9 32.1 33.3 5.2 4.6 22.7 17.6 27.4 20.4 2.2 1.3 4.2 2.6 4.5 2.9 3.7 4.1 39.3 20.5 55.5 25.6 3.3 1.1 6.5 2.2 7 2.6 1 .8 1.5 58.4.5 59.1-.3.2-3.9 2-8.2 4.1-14.8 7.4-27.3 21.9-33.1 38.6-5.3 15.1-4.5 34.3 1.9 49 6.6 14.8 17.9 26.6 32.8 34.2l7.1 3.6V563l-13.5.1c-7.4 0-15.7.2-18.4.4-30.6 2.4-60.1 18.1-79.7 42.4-11.8 14.7-21.6 36.4-23.5 52.4-.3 2.3-.7 4.4-1 4.8-.2.4-.4 4.8-.5 9.8-.1 8 .2 9.8 2.5 14.4 2.9 5.7 6.9 9.3 12.4 11.3 3 1.1 39.3 1.3 190.8 1.4h187l5.1-2.5c8.9-4.5 13.4-13.1 12.7-24-1.4-20.6-4.6-32.9-12.6-48.4-16.4-31.8-45.2-53-82.3-60.7-1.6-.4-11.7-.9-22.2-1.1-13.5-.4-19.3-.9-19.4-1.7-.2-5.2-.1-62.8.2-63 .2-.2 3.3-1.8 6.9-3.6 25.2-12.6 39.4-37.4 37.7-65.9-1.4-24.3-15.2-45.2-37.2-56.4-5.7-3-7.5-4.4-7.6-6-.1-2.4-.1-46.9 0-52.8l.1-3.7 9.8-3.2c62.5-20.9 114.8-65.6 144.2-123.5 8-15.7 10.2-20.7 15-35l3.8-11 19.8-.5 19.9-.5 4.5-3c16.4-11.1 13.5-34.5-5.2-41.1-2.7-.9-8.3-1.4-17.2-1.4h-13.1l.3-22.2c.2-12.3.5-22.4.7-22.6.2-.2 5.7-.3 12.2-.3 15.2.1 21-1.5 26.3-7.1 6.8-7.1 8.7-16.6 4.9-24.8-2.5-5.4-4.2-7.5-9.4-10.9l-4-2.6L351.4.3 71.4 0l-5.2 2.6z"/></svg>